<?xml version="1.0" encoding="UTF-8"?>
<svg id="Layer_1" xmlns="http://www.w3.org/2000/svg" xmlns:xlink="http://www.w3.org/1999/xlink" viewBox="0 0 721.95 144.74">
  <defs>
    <style>
      .cls-1{fill:none;}.cls-2{fill:url(#linear-gradient);}.cls-3{clip-path:url(#clippath);}.cls-4{fill:#fc466b;}.cls-5{fill:#545beb;}.cls-6{clip-path:url(#clippath-1);}.cls-7{clip-path:url(#clippath-4);}.cls-8{clip-path:url(#clippath-3);}.cls-9{clip-path:url(#clippath-2);}.cls-10{clip-path:url(#clippath-7);}.cls-11{clip-path:url(#clippath-8);}.cls-12{clip-path:url(#clippath-6);}.cls-13{clip-path:url(#clippath-5);}.cls-14{fill:url(#linear-gradient-8);}.cls-15{fill:url(#linear-gradient-9);}.cls-16{fill:url(#linear-gradient-3);}.cls-17{fill:url(#linear-gradient-4);}.cls-18{fill:url(#linear-gradient-2);}.cls-19{fill:url(#linear-gradient-6);}.cls-20{fill:url(#linear-gradient-7);}.cls-21{fill:url(#linear-gradient-5);}.cls-22{fill:url(#linear-gradient-14);}.cls-23{fill:url(#linear-gradient-18);}.cls-24{fill:url(#linear-gradient-22);}.cls-25{fill:url(#linear-gradient-20);}.cls-26{fill:url(#linear-gradient-21);}.cls-27{fill:url(#linear-gradient-23);}.cls-28{fill:url(#linear-gradient-15);}.cls-29{fill:url(#linear-gradient-19);}.cls-30{fill:url(#linear-gradient-16);}.cls-31{fill:url(#linear-gradient-17);}.cls-32{fill:url(#linear-gradient-13);}.cls-33{fill:url(#linear-gradient-12);}.cls-34{fill:url(#linear-gradient-10);}.cls-35{fill:url(#linear-gradient-11);}.cls-36{fill:url(#linear-gradient-24);}
    </style>
  </defs>
  <g>
    <g>
      <path class="cls-5" d="M88.95,67.95l-40.6,40.6c-1.79,1.79-.38,4.86,2.14,4.66,10.76-.84,21.29-5.37,29.52-13.6,8.23-8.23,12.76-18.76,13.6-29.52,.2-2.53-2.87-3.94-4.66-2.14Z"/>
      <path class="cls-5" d="M89.29,46.38l-.07-.15c-2.4-5.06-9.03-6.29-12.98-2.33L24.31,95.83c-3.96,3.96-2.73,10.58,2.33,12.98l.15,.07c3.04,1.43,6.65,.74,9.03-1.63l51.84-51.84c2.37-2.37,3.06-5.99,1.63-9.03Z"/>
      <path class="cls-5" d="M45.27,24.27c1.79-1.79,.38-4.86-2.14-4.66-10.76,.84-21.29,5.37-29.52,13.6C5.38,41.43,.85,51.96,0,62.72c-.2,2.53,2.87,3.94,4.66,2.14L45.27,24.27Z"/>
    </g><g>
      <path class="cls-5" d="M11.92,71.44l-5.96,5.96c-2.4,2.4-3.04,6.05-1.59,9.12l.06,.14c2.37,5.03,9.02,6.18,12.95,2.25l6-6c3.17-3.17,3.17-8.3,0-11.47h0c-3.17-3.17-8.3-3.17-11.47,0Z"/>
      <path class="cls-4" d="M42.19,64.11l27.13-27.13c3.93-3.93,2.78-10.57-2.25-12.95l-.14-.06c-3.07-1.45-6.72-.82-9.12,1.59l-27.09,27.09c-3.17,3.17-3.17,8.3,0,11.47h0c3.17,3.17,8.3,3.17,11.47,0Z"/>
    </g>
  </g>
</svg>
